Coordinates
version=1
nRows=11
nColumns=36
inDegrees=yes

Units are S.I. units (second, meters, Newtons, ...)
If the header above contains a line with 'inDegrees', this indicates whether rotational values are in degrees (yes) or radians (no).

endheader
time	pelvis_tilt	pelvis_list	pelvis_rotation	pelvis_tx	pelvis_ty	pelvis_tz	hip_flexion_r	hip_adduction_r	hip_rotation_r	knee_angle_r	knee_angle_r_beta	ankle_angle_r	subtalar_angle_r	mtp_angle_r	hip_flexion_l	hip_adduction_l	hip_rotation_l	knee_angle_l	knee_angle_l_beta	ankle_angle_l	subtalar_angle_l	mtp_angle_l	lumbar_extension	lumbar_bending	lumbar_rotation	arm_flex_r	arm_add_r	arm_rot_r	elbow_flex_r	pro_sup_r	arm_flex_l	arm_add_l	arm_rot_l	elbow_flex_l	pro_sup_l
      0.66000000	      1.86680534	      2.48727410	     -6.12017678	      0.70384550	      0.92905118	     -0.22814110	    -14.55213696	     -2.04324896	      0.39870558	     33.94643300	      0.59247703	     -5.30719060	    -10.08646483	     -7.01446276	     22.51395939	      5.64567206	     -3.06731001	     21.63818113	      0.37765750	     -4.26750563	    -20.06610813	     -7.01446276	     -4.76634827	     -3.98310833	      5.98023054	      0.82825582	     -5.83232740	     -7.70401384	     45.63703269	    112.11943249	     -8.96947253	     -7.86510022	     -7.21239118	     16.67884895	    104.26717638
      0.67000000	      1.99878401	      2.94549982	     -5.61187459	      0.71763347	      0.93076119	     -0.22972227	    -12.54532512	     -2.81685175	     -0.11017367	     38.27006726	      0.66793868	     -8.91070927	    -10.39546243	     -7.02053460	     21.53362376	      6.49274133	     -2.73541966	     21.82161814	      0.38085908	     -3.08917578	    -19.92345227	     -7.02053460	     -4.82603437	     -4.58851812	      5.22131781	      0.09688852	     -5.51236992	     -7.66861944	     44.98637307	    112.14613525	     -8.31921632	     -7.90276322	     -6.90677348	     17.30200954	    104.37730485
      0.68000000	      1.99629597	      3.18582482	     -5.15248154	      0.73087620	      0.93228017	     -0.23105208	    -10.27593293	     -3.23915449	     -0.25919996	     42.45151969	      0.74091879	    -13.43311107	    -12.29738258	     -7.03897619	     20.69961014	      6.99023920	     -2.56960578	     22.02777531	      0.38445721	     -1.63224411	    -19.01864582	     -7.03897619	     -4.79753819	     -4.93028796	      4.38063393	     -0.39748403	     -5.20746596	     -7.44529974	     43.92524907	    112.27970414	     -7.75708362	     -7.92787688	     -6.32586546	     18.11302337	    104.60833032
      0.69000000	      2.14481779	      3.64803161	     -4.79425437	      0.74392287	      0.93398446	     -0.23254628	     -8.07932059	     -4.10305425	     -0.51493449	     46.51025274	      0.81175705	    -16.31154993	    -12.00026360	     -7.04451419	     19.47102155	      7.78841271	     -2.31721314	     21.70107595	      0.37875523	     -0.69774174	    -18.81220039	     -7.04451419	     -4.97779868	     -5.48625851	      3.73041733	     -1.02904349	     -4.94732542	     -7.33927034	     43.18959531	    112.29658280	     -6.90831243	     -7.88556434	     -6.08021920	     18.70531751	    104.72222394
      0.70000000	      2.09805734	      4.05083216	     -4.49086430	      0.75662178	      0.93536442	     -0.23377154	     -5.60386368	     -4.84324631	     -0.62805357	     50.36637393	      0.87905906	    -18.76008277	    -12.37424577	     -7.05061268	     18.41911464	      8.43440704	     -2.20277406	     21.26745843	      0.37118717	      0.19573788	    -18.40979836	     -7.05061268	     -4.90083639	     -5.99745665	      3.11389499	     -1.55779377	     -4.66409102	     -7.20245597	     42.15055429	    112.31315142	     -6.13055811	     -7.92575179	     -5.71690090	     19.46342594	    104.88750326
      0.71000000	      2.05145391	      4.37495128	     -4.30197856	      0.76895678	      0.93674633	     -0.23483563	     -3.12466773	     -5.44078733	     -0.49322450	     53.88743165	      0.94051311	    -20.33845610	    -13.10603856	     -7.05648754	     17.34285836	      8.94740690	     -2.13152826	     20.78225822	      0.36271883	      1.04257490	    -17.89487613	     -7.05648754	     -4.88973967	     -6.39139369	      2.52155755	     -1.97386545	     -4.42677268	     -7.02421195	     41.01059963	    112.33308975	     -5.34268991	     -7.90567727	     -5.29898397	     20.23817982	    105.07301500
      0.72000000	      1.93584075	      4.63772629	     -4.15873711	      0.78106393	      0.93811706	     -0.23568709	     -0.60249550	     -5.90249276	     -0.27520150	     57.02312041	      0.99524120	    -20.88553317	    -14.16159689	     -7.06207600	     16.28731586	      9.34746356	     -2.15452659	     20.17367495	      0.35209705	      1.87046978	    -17.29373070	     -7.06207600	     -4.82522406	     -6.72892496	      1.99052546	     -2.33453933	     -4.20538797	     -6.80887556	     39.78749592	    112.35548962	     -4.49910671	     -7.92331996	     -4.84428803	     21.04387596	    105.26982836
      0.73000000	      1.72182057	      4.76907055	     -4.01876592	      0.79284029	      0.93936906	     -0.23639500	      1.99850959	     -6.11486684	      0.04496513	     59.79538047	      1.04362627	    -20.62389494	    -15.54621611	     -7.07268481	     15.43243289	      9.53980732	     -2.33818191	     19.74824224	      0.34467185	      2.80757164	    -16.20472772	     -7.07268481	     -4.69001419	     -6.91201244	      1.33748962	     -2.47720863	     -4.07521666	     -6.37354782	     38.20790451	    112.43586094	     -3.73850386	     -8.03079485	     -4.10173309	     21.94964609	    105.57391136
      0.74000000	      1.53667856	      4.82205572	     -3.99020821	      0.80460567	      0.94078443	     -0.23694981	      4.50188260	     -6.21838646	      0.42194675	     62.10712450	      1.08397381	    -19.37034935	    -16.70998654	     -7.09135963	     14.42826652	      9.63084299	     -2.53876701	     19.09599250	      0.33328794	      4.00358111	    -14.97531475	     -7.09135963	     -4.57817571	     -6.98239850	      0.80950641	     -2.67127973	     -3.94562922	     -5.72261943	     36.71190616	    112.56725801	     -2.92345151	     -8.02757231	     -3.26179166	     22.70455063	    105.91104343
      0.75000000	      1.44694808	      4.78387834	     -3.96161526	      0.81621803	      0.94246005	     -0.23746904	      6.80529959	     -6.13582520	      0.86579381	     63.92300476	      1.11566690	    -17.85822010	    -18.06240036	     -7.09501140	     13.23216636	      9.70318914	     -2.34354566	     18.25684183	      0.31864200	      4.50166635	    -14.60888430	     -7.09501140	     -4.64714267	     -6.95443571	      0.46036025	     -3.09884749	     -3.81157164	     -5.66464534	     35.84193751	    112.55302952	     -1.84713894	     -7.93806966	     -2.99292266	     23.38758417	    106.02345148
      0.76000000	      1.22088221	      4.71740570	     -3.90116613	      0.82773767	      0.94399031	     -0.23807722	      9.21434502	     -6.01662812	      1.22711775	     65.33999408	      1.14039803	    -16.08984453	    -19.28270581	     -7.09913311	     12.21884981	      9.73379687	     -2.22956891	     17.45211159	      0.30459681	      5.00853562	    -14.12867849	     -7.09913311	     -4.55546538	     -6.85979431	      0.07311332	     -3.45300014	     -3.69629460	     -5.62285229	     34.69831315	    112.53873782	     -0.85689101	     -7.86909550	     -2.55160761	     24.19068982	    106.17725023
